<svg width="403" height="93" viewBox="0 0 403 93" fill="none" xmlns="http://www.w3.org/2000/svg">
<mask id="path-1-outside-1_0_1" maskUnits="userSpaceOnUse" x="-0.262634" y="3.23199" width="108" height="71" fill="black">
<rect fill="white" x="-0.262634" y="3.23199" width="108" height="71"/>
<path d="M1 5.03199H46.12L46.024 14.728H12.328V34.696H42.856V44.296H12.328V72.232H1V5.03199ZM79.3547 20.872C84.6027 20.872 89.2107 21.96 93.1787 24.136C97.2108 26.312 100.347 29.352 102.587 33.256C104.827 37.096 105.947 41.576 105.947 46.696C105.947 51.816 104.827 56.328 102.587 60.232C100.347 64.136 97.2108 67.176 93.1787 69.352C89.2107 71.528 84.6027 72.616 79.3547 72.616C74.1067 72.616 69.4667 71.528 65.4347 69.352C61.4027 67.176 58.2667 64.136 56.0267 60.232C53.7867 56.328 52.6667 51.816 52.6667 46.696C52.6667 41.576 53.7867 37.096 56.0267 33.256C58.2667 29.352 61.4027 26.312 65.4347 24.136C69.4667 21.96 74.1067 20.872 79.3547 20.872ZM79.3547 29.8C76.2827 29.8 73.5627 30.536 71.1947 32.008C68.8267 33.416 66.9707 35.4 65.6267 37.96C64.3467 40.52 63.7067 43.464 63.7067 46.792C63.7067 50.184 64.3467 53.16 65.6267 55.72C66.9707 58.28 68.8267 60.296 71.1947 61.768C73.5627 63.176 76.2827 63.88 79.3547 63.88C82.4268 63.88 85.1147 63.176 87.4187 61.768C89.7867 60.296 91.6107 58.28 92.8907 55.72C94.2347 53.16 94.9067 50.184 94.9067 46.792C94.9067 43.464 94.2347 40.52 92.8907 37.96C91.6107 35.4 89.7867 33.416 87.4187 32.008C85.1147 30.536 82.4268 29.8 79.3547 29.8Z"/>
</mask>
<path d="M1 5.03199H46.12L46.024 14.728H12.328V34.696H42.856V44.296H12.328V72.232H1V5.03199ZM79.3547 20.872C84.6027 20.872 89.2107 21.96 93.1787 24.136C97.2108 26.312 100.347 29.352 102.587 33.256C104.827 37.096 105.947 41.576 105.947 46.696C105.947 51.816 104.827 56.328 102.587 60.232C100.347 64.136 97.2108 67.176 93.1787 69.352C89.2107 71.528 84.6027 72.616 79.3547 72.616C74.1067 72.616 69.4667 71.528 65.4347 69.352C61.4027 67.176 58.2667 64.136 56.0267 60.232C53.7867 56.328 52.6667 51.816 52.6667 46.696C52.6667 41.576 53.7867 37.096 56.0267 33.256C58.2667 29.352 61.4027 26.312 65.4347 24.136C69.4667 21.96 74.1067 20.872 79.3547 20.872ZM79.3547 29.8C76.2827 29.8 73.5627 30.536 71.1947 32.008C68.8267 33.416 66.9707 35.4 65.6267 37.96C64.3467 40.52 63.7067 43.464 63.7067 46.792C63.7067 50.184 64.3467 53.16 65.6267 55.72C66.9707 58.28 68.8267 60.296 71.1947 61.768C73.5627 63.176 76.2827 63.88 79.3547 63.88C82.4268 63.88 85.1147 63.176 87.4187 61.768C89.7867 60.296 91.6107 58.28 92.8907 55.72C94.2347 53.16 94.9067 50.184 94.9067 46.792C94.9067 43.464 94.2347 40.52 92.8907 37.96C91.6107 35.4 89.7867 33.416 87.4187 32.008C85.1147 30.536 82.4268 29.8 79.3547 29.8Z" fill="white"/>
<path d="M1 5.03198V4.03198H0V5.03198H1ZM46.12 5.03198L47.1199 5.0419L47.1299 4.03198H46.12V5.03198ZM46.024 14.728V15.728H47.0142L47.024 14.7379L46.024 14.728ZM12.328 14.728V13.728H11.328V14.728H12.328ZM12.328 34.696H11.328V35.696H12.328V34.696ZM42.856 34.696H43.856V33.696H42.856V34.696ZM42.856 44.296V45.296H43.856V44.296H42.856ZM12.328 44.296V43.296H11.328V44.296H12.328ZM12.328 72.232V73.232H13.328V72.232H12.328ZM1 72.232H0V73.232H1V72.232ZM1 5.03198V6.03198H46.12V5.03198V4.03198H1V5.03198ZM46.12 5.03198L45.1201 5.02209L45.024 14.7181L46.024 14.728L47.024 14.7379L47.1199 5.0419L46.12 5.03198ZM46.024 14.728V13.728H12.328V14.728V15.728H46.024V14.728ZM12.328 14.728H11.328V34.696H12.328H13.328V14.728H12.328ZM12.328 34.696V35.696H42.856V34.696V33.696H12.328V34.696ZM42.856 34.696H41.856V44.296H42.856H43.856V34.696H42.856ZM42.856 44.296V43.296H12.328V44.296V45.296H42.856V44.296ZM12.328 44.296H11.328V72.232H12.328H13.328V44.296H12.328ZM12.328 72.232V71.232H1V72.232V73.232H12.328V72.232ZM1 72.232H2V5.03198H1H0V72.232H1ZM93.1787 24.136L92.6979 25.0128L92.7038 25.016L93.1787 24.136ZM102.587 33.256L101.719 33.7537L101.723 33.7599L102.587 33.256ZM102.587 60.232L101.719 59.7343V59.7343L102.587 60.232ZM93.1787 69.352L92.7038 68.472L92.6979 68.4752L93.1787 69.352ZM65.4348 69.352L65.9097 68.472V68.472L65.4348 69.352ZM56.0267 60.232L55.1594 60.7297V60.7297L56.0267 60.232ZM56.0267 33.256L56.8906 33.7599L56.8941 33.7537L56.0267 33.256ZM65.4348 24.136L64.9598 23.256V23.256L65.4348 24.136ZM71.1948 32.008L71.7058 32.8675L71.7143 32.8625L71.7227 32.8573L71.1948 32.008ZM65.6267 37.96L64.7414 37.4952L64.7368 37.5039L64.7323 37.5128L65.6267 37.96ZM65.6267 55.72L64.7323 56.1672L64.7368 56.1761L64.7414 56.1848L65.6267 55.72ZM71.1948 61.768L70.6668 62.6173L70.6752 62.6225L70.6837 62.6275L71.1948 61.768ZM87.4188 61.768L87.9402 62.6213L87.9467 62.6173L87.4188 61.768ZM92.8907 55.72L92.0053 55.2552L92.0008 55.2639L91.9963 55.2728L92.8907 55.72ZM92.8907 37.96L91.9963 38.4072L92.0008 38.4161L92.0053 38.4248L92.8907 37.96ZM87.4188 32.008L86.8804 32.8507L86.8939 32.8593L86.9077 32.8675L87.4188 32.008ZM79.3547 20.872V21.872C84.4617 21.872 88.8993 22.9297 92.6979 25.0128L93.1787 24.136L93.6596 23.2592C89.5222 20.9903 84.7438 19.872 79.3547 19.872V20.872ZM93.1787 24.136L92.7038 25.016C96.5751 27.1053 99.5738 30.0142 101.719 33.7537L102.587 33.256L103.454 32.7583C101.12 28.6898 97.8464 25.5187 93.6537 23.256L93.1787 24.136ZM102.587 33.256L101.723 33.7599C103.861 37.425 104.947 41.7258 104.947 46.696H105.947H106.947C106.947 41.4262 105.793 36.767 103.451 32.7521L102.587 33.256ZM105.947 46.696H104.947C104.947 51.6658 103.861 56.0016 101.719 59.7343L102.587 60.232L103.454 60.7297C105.792 56.6543 106.947 51.9662 106.947 46.696H105.947ZM102.587 60.232L101.719 59.7343C99.5738 63.4738 96.5751 66.3827 92.7038 68.472L93.1787 69.352L93.6537 70.232C97.8464 67.9693 101.12 64.7982 103.454 60.7297L102.587 60.232ZM93.1787 69.352L92.6979 68.4752C88.8993 70.5583 84.4617 71.616 79.3547 71.616V72.616V73.616C84.7438 73.616 89.5222 72.4977 93.6596 70.2288L93.1787 69.352ZM79.3547 72.616V71.616C74.2482 71.616 69.7758 70.5584 65.9097 68.472L65.4348 69.352L64.9598 70.232C69.1577 72.4976 73.9653 73.616 79.3547 73.616V72.616ZM65.4348 69.352L65.9097 68.472C62.0384 66.3827 59.0397 63.4738 56.8941 59.7343L56.0267 60.232L55.1594 60.7297C57.4938 64.7982 60.7671 67.9693 64.9598 70.232L65.4348 69.352ZM56.0267 60.232L56.8941 59.7343C54.7524 56.0016 53.6667 51.6658 53.6667 46.696H52.6667H51.6667C51.6667 51.9662 52.8211 56.6543 55.1594 60.7297L56.0267 60.232ZM52.6667 46.696H53.6667C53.6667 41.7258 54.7525 37.425 56.8905 33.7599L56.0267 33.256L55.163 32.7521C52.821 36.767 51.6667 41.4262 51.6667 46.696H52.6667ZM56.0267 33.256L56.8941 33.7537C59.0397 30.0142 62.0384 27.1053 65.9097 25.016L65.4348 24.136L64.9598 23.256C60.7671 25.5187 57.4938 28.6898 55.1594 32.7583L56.0267 33.256ZM65.4348 24.136L65.9097 25.016C69.7758 22.9296 74.2482 21.872 79.3547 21.872V20.872V19.872C73.9653 19.872 69.1577 20.9904 64.9598 23.256L65.4348 24.136ZM79.3547 29.8V28.8C76.1158 28.8 73.2092 29.5783 70.6668 31.1587L71.1948 32.008L71.7227 32.8573C73.9163 31.4937 76.4497 30.8 79.3547 30.8V29.8ZM71.1948 32.008L70.6837 31.1485C68.1488 32.6557 66.1668 34.78 64.7414 37.4952L65.6267 37.96L66.5121 38.4248C67.7747 36.02 69.5047 34.1763 71.7058 32.8675L71.1948 32.008ZM65.6267 37.96L64.7323 37.5128C63.3724 40.2326 62.7068 43.334 62.7068 46.792H63.7068H64.7068C64.7068 43.594 65.3211 40.8074 66.5212 38.4072L65.6267 37.96ZM63.7068 46.792H62.7068C62.7068 50.3107 63.3712 53.4449 64.7323 56.1672L65.6267 55.72L66.5212 55.2728C65.3223 52.8751 64.7068 50.0573 64.7068 46.792H63.7068ZM65.6267 55.72L64.7414 56.1848C66.1649 58.8964 68.1418 61.0477 70.6668 62.6173L71.1948 61.768L71.7227 60.9187C69.5117 59.5443 67.7766 57.6636 66.5121 55.2552L65.6267 55.72ZM71.1948 61.768L70.6837 62.6275C73.2236 64.1378 76.1241 64.88 79.3547 64.88V63.88V62.88C76.4414 62.88 73.9019 62.2142 71.7058 60.9084L71.1948 61.768ZM79.3547 63.88V64.88C82.5848 64.88 85.4585 64.1379 87.9402 62.6213L87.4188 61.768L86.8973 60.9147C84.771 62.2141 82.2686 62.88 79.3547 62.88V63.88ZM87.4188 61.768L87.9467 62.6173C90.476 61.045 92.4248 58.8879 93.7852 56.1672L92.8907 55.72L91.9963 55.2728C90.7967 57.6721 89.0975 59.547 86.8908 60.9187L87.4188 61.768ZM92.8907 55.72L93.7762 56.1848C95.2075 53.4585 95.9067 50.3179 95.9067 46.792H94.9067H93.9067C93.9067 50.0501 93.262 52.8615 92.0053 55.2552L92.8907 55.72ZM94.9067 46.792H95.9067C95.9067 43.3267 95.2061 40.2188 93.7762 37.4952L92.8907 37.96L92.0053 38.4248C93.2634 40.8211 93.9067 43.6013 93.9067 46.792H94.9067ZM92.8907 37.96L93.7852 37.5128C92.423 34.7885 90.4691 32.6583 87.9298 31.1485L87.4188 32.008L86.9077 32.8675C89.1044 34.1737 90.7985 36.0115 91.9963 38.4072L92.8907 37.96ZM87.4188 32.008L87.9572 31.1653C85.473 29.5782 82.5932 28.8 79.3547 28.8V29.8V30.8C82.2603 30.8 84.7565 31.4938 86.8804 32.8507L87.4188 32.008Z" fill="white" mask="url(#path-1-outside-1_0_1)"/>
<mask id="path-3-outside-2_0_1" maskUnits="userSpaceOnUse" x="181.737" y="-0.768005" width="222" height="94" fill="black">
<rect fill="white" x="181.737" y="-0.768005" width="222" height="94"/>
<path d="M220.638 43.432C220.638 39.464 219.55 36.36 217.374 34.12C215.198 31.816 212.19 30.664 208.35 30.664C203.806 30.728 200.222 32.328 197.598 35.464C195.038 38.6 193.758 42.504 193.758 47.176H190.686C190.686 40.84 191.582 35.752 193.374 31.912C195.166 28.072 197.694 25.288 200.958 23.56C204.286 21.768 208.19 20.872 212.67 20.872C216.638 20.872 220.03 21.672 222.846 23.272C225.726 24.872 227.902 27.144 229.374 30.088C230.91 32.968 231.678 36.456 231.678 40.552V72.232H220.638V43.432ZM182.814 21.256H193.854V72.232H182.814V21.256ZM267.878 20.776C272.614 20.776 276.614 21.832 279.878 23.944C283.206 25.992 285.734 28.968 287.462 32.872C289.254 36.712 290.118 41.32 290.054 46.696C290.118 52.072 289.286 56.712 287.558 60.616C285.83 64.52 283.302 67.528 279.974 69.64C276.71 71.688 272.742 72.712 268.07 72.712C263.206 72.712 258.918 71.624 255.206 69.448C251.558 67.208 248.71 64.136 246.662 60.232C244.614 56.264 243.59 51.72 243.59 46.6C243.59 41.48 244.614 37 246.662 33.16C248.71 29.256 251.558 26.216 255.206 24.04C258.854 21.864 263.078 20.776 267.878 20.776ZM270.374 29.704C267.302 29.704 264.582 30.44 262.214 31.912C259.846 33.384 257.99 35.432 256.646 38.056C255.366 40.616 254.694 43.56 254.63 46.888C254.694 50.216 255.366 53.16 256.646 55.72C257.99 58.28 259.846 60.296 262.214 61.768C264.582 63.24 267.302 63.976 270.374 63.976C273.446 63.976 276.166 63.24 278.534 61.768C280.902 60.296 282.726 58.28 284.006 55.72C285.35 53.16 286.022 50.216 286.022 46.888C286.022 43.496 285.35 40.52 284.006 37.96C282.726 35.4 280.902 33.384 278.534 31.912C276.166 30.44 273.446 29.704 270.374 29.704ZM286.022 0.99999H297.062V72.232H286.022V0.99999ZM344.452 30.856C340.804 30.664 337.636 31.304 334.948 32.776C332.324 34.184 330.276 36.168 328.804 38.728C327.396 41.288 326.692 44.232 326.692 47.56L323.62 47.176C323.62 41.48 324.452 36.68 326.116 32.776C327.78 28.872 330.18 25.928 333.316 23.944C336.452 21.896 340.164 20.872 344.452 20.872V30.856ZM315.748 21.256H326.788V72.232H315.748V21.256ZM378.044 79.432C376.444 83.336 374.236 86.28 371.42 88.264C368.604 90.312 365.276 91.336 361.436 91.336C359.132 91.336 357.02 90.984 355.1 90.28C353.244 89.576 351.42 88.52 349.628 87.112L354.332 78.952C356.636 80.616 358.844 81.448 360.956 81.448C362.62 81.448 364.124 80.968 365.468 80.008C366.812 79.048 367.9 77.576 368.732 75.592L370.46 71.56L349.34 21.256H360.764L376.028 60.616L390.236 21.256H401.276L378.044 79.432Z"/>
</mask>
<path d="M220.638 43.432C220.638 39.464 219.55 36.36 217.374 34.12C215.198 31.816 212.19 30.664 208.35 30.664C203.806 30.728 200.222 32.328 197.598 35.464C195.038 38.6 193.758 42.504 193.758 47.176H190.686C190.686 40.84 191.582 35.752 193.374 31.912C195.166 28.072 197.694 25.288 200.958 23.56C204.286 21.768 208.19 20.872 212.67 20.872C216.638 20.872 220.03 21.672 222.846 23.272C225.726 24.872 227.902 27.144 229.374 30.088C230.91 32.968 231.678 36.456 231.678 40.552V72.232H220.638V43.432ZM182.814 21.256H193.854V72.232H182.814V21.256ZM267.878 20.776C272.614 20.776 276.614 21.832 279.878 23.944C283.206 25.992 285.734 28.968 287.462 32.872C289.254 36.712 290.118 41.32 290.054 46.696C290.118 52.072 289.286 56.712 287.558 60.616C285.83 64.52 283.302 67.528 279.974 69.64C276.71 71.688 272.742 72.712 268.07 72.712C263.206 72.712 258.918 71.624 255.206 69.448C251.558 67.208 248.71 64.136 246.662 60.232C244.614 56.264 243.59 51.72 243.59 46.6C243.59 41.48 244.614 37 246.662 33.16C248.71 29.256 251.558 26.216 255.206 24.04C258.854 21.864 263.078 20.776 267.878 20.776ZM270.374 29.704C267.302 29.704 264.582 30.44 262.214 31.912C259.846 33.384 257.99 35.432 256.646 38.056C255.366 40.616 254.694 43.56 254.63 46.888C254.694 50.216 255.366 53.16 256.646 55.72C257.99 58.28 259.846 60.296 262.214 61.768C264.582 63.24 267.302 63.976 270.374 63.976C273.446 63.976 276.166 63.24 278.534 61.768C280.902 60.296 282.726 58.28 284.006 55.72C285.35 53.16 286.022 50.216 286.022 46.888C286.022 43.496 285.35 40.52 284.006 37.96C282.726 35.4 280.902 33.384 278.534 31.912C276.166 30.44 273.446 29.704 270.374 29.704ZM286.022 0.99999H297.062V72.232H286.022V0.99999ZM344.452 30.856C340.804 30.664 337.636 31.304 334.948 32.776C332.324 34.184 330.276 36.168 328.804 38.728C327.396 41.288 326.692 44.232 326.692 47.56L323.62 47.176C323.62 41.48 324.452 36.68 326.116 32.776C327.78 28.872 330.18 25.928 333.316 23.944C336.452 21.896 340.164 20.872 344.452 20.872V30.856ZM315.748 21.256H326.788V72.232H315.748V21.256ZM378.044 79.432C376.444 83.336 374.236 86.28 371.42 88.264C368.604 90.312 365.276 91.336 361.436 91.336C359.132 91.336 357.02 90.984 355.1 90.28C353.244 89.576 351.42 88.52 349.628 87.112L354.332 78.952C356.636 80.616 358.844 81.448 360.956 81.448C362.62 81.448 364.124 80.968 365.468 80.008C366.812 79.048 367.9 77.576 368.732 75.592L370.46 71.56L349.34 21.256H360.764L376.028 60.616L390.236 21.256H401.276L378.044 79.432Z" fill="white"/>
<path d="M217.374 34.12L216.647 34.8067L216.657 34.8168L217.374 34.12ZM208.35 30.664V29.6639L208.336 29.6641L208.35 30.664ZM197.598 35.464L196.831 34.8222L196.824 34.8316L197.598 35.464ZM193.758 47.176V48.176H194.758V47.176H193.758ZM190.686 47.176H189.686V48.176H190.686V47.176ZM200.958 23.56L201.426 24.4438L201.432 24.4405L200.958 23.56ZM222.846 23.272L222.352 24.1415L222.361 24.1461L222.846 23.272ZM229.374 30.088L228.48 30.5352L228.486 30.547L228.492 30.5586L229.374 30.088ZM231.678 72.232V73.232H232.678V72.232H231.678ZM220.638 72.232H219.638V73.232H220.638V72.232ZM182.814 21.256V20.256H181.814V21.256H182.814ZM193.854 21.256H194.854V20.256H193.854V21.256ZM193.854 72.232V73.232H194.854V72.232H193.854ZM182.814 72.232H181.814V73.232H182.814V72.232ZM220.638 43.432H221.638C221.638 39.2774 220.494 35.8967 218.092 33.4232L217.374 34.12L216.657 34.8168C218.606 36.8233 219.638 39.6505 219.638 43.432H220.638ZM217.374 34.12L218.101 33.4334C215.697 30.8879 212.403 29.664 208.35 29.664V30.664V31.664C211.978 31.664 214.699 32.7441 216.647 34.8066L217.374 34.12ZM208.35 30.664L208.336 29.6641C203.537 29.7317 199.664 31.4365 196.831 34.8223L197.598 35.464L198.365 36.1057C200.78 33.2195 204.075 31.7243 208.364 31.6639L208.35 30.664ZM197.598 35.464L196.824 34.8316C194.096 38.1731 192.758 42.3109 192.758 47.176H193.758H194.758C194.758 42.6971 195.981 39.0269 198.373 36.0964L197.598 35.464ZM193.758 47.176V46.176H190.686V47.176V48.176H193.758V47.176ZM190.686 47.176H191.686C191.686 40.9201 192.573 35.9934 194.28 32.3349L193.374 31.912L192.468 31.4891C190.591 35.5106 189.686 40.7599 189.686 47.176H190.686ZM193.374 31.912L194.28 32.3349C195.995 28.6618 198.382 26.0553 201.426 24.4438L200.958 23.56L200.49 22.6762C197.006 24.5207 194.338 27.4822 192.468 31.4891L193.374 31.912ZM200.958 23.56L201.432 24.4405C204.59 22.7403 208.325 21.872 212.67 21.872V20.872V19.872C208.055 19.872 203.983 20.7957 200.484 22.6795L200.958 23.56ZM212.67 20.872V21.872C216.504 21.872 219.717 22.6443 222.352 24.1414L222.846 23.272L223.34 22.4025C220.343 20.6997 216.773 19.872 212.67 19.872V20.872ZM222.846 23.272L222.361 24.1461C225.065 25.6484 227.098 27.7716 228.48 30.5352L229.374 30.088L230.269 29.6408C228.706 26.5163 226.388 24.0956 223.332 22.3978L222.846 23.272ZM229.374 30.088L228.492 30.5586C229.933 33.2614 230.678 36.5791 230.678 40.552H231.678H232.678C232.678 36.3329 231.887 32.6746 230.257 29.6174L229.374 30.088ZM231.678 40.552H230.678V72.232H231.678H232.678V40.552H231.678ZM231.678 72.232V71.232H220.638V72.232V73.232H231.678V72.232ZM220.638 72.232H221.638V43.432H220.638H219.638V72.232H220.638ZM182.814 21.256V22.256H193.854V21.256V20.256H182.814V21.256ZM193.854 21.256H192.854V72.232H193.854H194.854V21.256H193.854ZM193.854 72.232V71.232H182.814V72.232V73.232H193.854V72.232ZM182.814 72.232H183.814V21.256H182.814H181.814V72.232H182.814ZM279.878 23.944L279.335 24.7836L279.345 24.7897L279.354 24.7957L279.878 23.944ZM287.462 32.872L286.548 33.2767L286.552 33.2859L286.556 33.2949L287.462 32.872ZM290.054 46.696L289.055 46.6841L289.054 46.696L289.055 46.7079L290.054 46.696ZM279.974 69.64L280.506 70.4871L280.51 70.4843L279.974 69.64ZM255.206 69.448L254.683 70.3002L254.692 70.3055L254.701 70.3107L255.206 69.448ZM246.662 60.232L245.774 60.6906L245.777 60.6965L246.662 60.232ZM246.662 33.16L247.545 33.6306L247.548 33.6245L246.662 33.16ZM255.206 24.04L254.694 23.1812V23.1812L255.206 24.04ZM262.214 31.912L262.742 32.7613V32.7613L262.214 31.912ZM256.646 38.056L255.756 37.6001L255.752 37.6088L256.646 38.056ZM254.63 46.888L253.631 46.8688L253.63 46.888L253.631 46.9072L254.63 46.888ZM256.646 55.72L255.752 56.1672L255.756 56.1761L255.761 56.1848L256.646 55.72ZM262.214 61.768L262.742 60.9187V60.9187L262.214 61.768ZM278.534 61.768L278.007 60.9187H278.007L278.534 61.768ZM284.006 55.72L283.121 55.2552L283.116 55.2639L283.112 55.2728L284.006 55.72ZM284.006 37.96L283.112 38.4072L283.116 38.4161L283.121 38.4248L284.006 37.96ZM286.022 1V0H285.022V1H286.022ZM297.062 1H298.062V0H297.062V1ZM297.062 72.232V73.232H298.062V72.232H297.062ZM286.022 72.232H285.022V73.232H286.022V72.232ZM267.878 20.776V21.776C272.464 21.776 276.265 22.7971 279.335 24.7836L279.878 23.944L280.422 23.1044C276.964 20.8669 272.765 19.776 267.878 19.776V20.776ZM279.878 23.944L279.354 24.7957C282.494 26.7278 284.894 29.5398 286.548 33.2767L287.462 32.872L288.377 32.4673C286.575 28.3961 283.919 25.2562 280.403 23.0923L279.878 23.944ZM287.462 32.872L286.556 33.2949C288.27 36.9673 289.117 41.4191 289.055 46.6841L290.054 46.696L291.054 46.7079C291.12 41.2209 290.239 36.4566 288.369 32.4491L287.462 32.872ZM290.054 46.696L289.055 46.7079C289.117 51.9765 288.301 56.4678 286.644 60.2112L287.558 60.616L288.473 61.0208C290.272 56.9562 291.12 52.1675 291.054 46.6841L290.054 46.696ZM287.558 60.616L286.644 60.2112C284.989 63.9503 282.586 66.7984 279.439 68.7957L279.974 69.64L280.51 70.4843C284.019 68.2576 286.672 65.0898 288.473 61.0208L287.558 60.616ZM279.974 69.64L279.443 68.7929C276.369 70.7216 272.595 71.712 268.07 71.712V72.712V73.712C272.89 73.712 277.052 72.6544 280.506 70.4871L279.974 69.64ZM268.07 72.712V71.712C263.361 71.712 259.252 70.6601 255.712 68.5853L255.206 69.448L254.701 70.3107C258.585 72.5879 263.052 73.712 268.07 73.712V72.712ZM255.206 69.448L255.73 68.5958C252.24 66.453 249.515 63.517 247.548 59.7675L246.662 60.232L245.777 60.6965C247.906 64.755 250.877 67.963 254.683 70.3002L255.206 69.448ZM246.662 60.232L247.551 59.7733C245.586 55.9667 244.59 51.584 244.59 46.6H243.59H242.59C242.59 51.856 243.643 56.5613 245.774 60.6906L246.662 60.232ZM243.59 46.6H244.59C244.59 41.6152 245.587 37.3022 247.545 33.6306L246.662 33.16L245.78 32.6894C243.642 36.6978 242.59 41.3448 242.59 46.6H243.59ZM246.662 33.16L247.548 33.6245C249.514 29.8774 252.235 26.9766 255.719 24.8988L255.206 24.04L254.694 23.1812C250.882 25.4554 247.907 28.6346 245.777 32.6954L246.662 33.16ZM255.206 24.04L255.719 24.8988C259.192 22.8268 263.235 21.776 267.878 21.776V20.776V19.776C262.922 19.776 258.516 20.9012 254.694 23.1812L255.206 24.04ZM270.374 29.704V28.704C267.136 28.704 264.229 29.4823 261.687 31.0627L262.214 31.912L262.742 32.7613C264.936 31.3977 267.469 30.704 270.374 30.704V29.704ZM262.214 31.912L261.687 31.0627C259.155 32.6361 257.178 34.8242 255.756 37.6001L256.646 38.056L257.537 38.5119C258.803 36.0398 260.538 34.1319 262.742 32.7613L262.214 31.912ZM256.646 38.056L255.752 37.6088C254.396 40.3219 253.697 43.4162 253.631 46.8688L254.63 46.888L255.63 46.9072C255.692 43.7038 256.337 40.9101 257.541 38.5032L256.646 38.056ZM254.63 46.888L253.631 46.9072C253.697 50.3598 254.396 53.4541 255.752 56.1672L256.646 55.72L257.541 55.2728C256.337 52.8658 255.692 50.0722 255.63 46.8688L254.63 46.888ZM256.646 55.72L255.761 56.1848C257.185 58.8964 259.162 61.0477 261.687 62.6173L262.214 61.768L262.742 60.9187C260.531 59.5443 258.796 57.6636 257.532 55.2552L256.646 55.72ZM262.214 61.768L261.687 62.6173C264.229 64.1977 267.136 64.976 270.374 64.976V63.976V62.976C267.469 62.976 264.936 62.2823 262.742 60.9187L262.214 61.768ZM270.374 63.976V64.976C273.613 64.976 276.52 64.1977 279.062 62.6173L278.534 61.768L278.007 60.9187C275.813 62.2823 273.28 62.976 270.374 62.976V63.976ZM278.534 61.768L279.062 62.6173C281.592 61.045 283.541 58.8879 284.901 56.1672L284.006 55.72L283.112 55.2728C281.912 57.6721 280.213 59.547 278.007 60.9187L278.534 61.768ZM284.006 55.72L284.892 56.1848C286.322 53.4612 287.022 50.3533 287.022 46.888H286.022H285.022C285.022 50.0786 284.379 52.8589 283.121 55.2552L284.006 55.72ZM286.022 46.888H287.022C287.022 43.3621 286.323 40.2215 284.892 37.4952L284.006 37.96L283.121 38.4248C284.378 40.8185 285.022 43.6299 285.022 46.888H286.022ZM284.006 37.96L284.901 37.5128C283.541 34.7921 281.592 32.635 279.062 31.0627L278.534 31.912L278.007 32.7613C280.213 34.133 281.912 36.0079 283.112 38.4072L284.006 37.96ZM278.534 31.912L279.062 31.0627C276.52 29.4823 273.613 28.704 270.374 28.704V29.704V30.704C273.28 30.704 275.813 31.3977 278.007 32.7613L278.534 31.912ZM286.022 1V2H297.062V1V0H286.022V1ZM297.062 1H296.062V72.232H297.062H298.062V1H297.062ZM297.062 72.232V71.232H286.022V72.232V73.232H297.062V72.232ZM286.022 72.232H287.022V1H286.022H285.022V72.232H286.022ZM344.452 30.856L344.399 31.8546L345.452 31.91V30.856H344.452ZM334.948 32.776L335.421 33.6572L335.428 33.6531L334.948 32.776ZM328.804 38.728L327.937 38.2295L327.932 38.2378L327.928 38.2461L328.804 38.728ZM326.692 47.56L326.568 48.5523L327.692 48.6928V47.56H326.692ZM323.62 47.176H322.62V48.0588L323.496 48.1683L323.62 47.176ZM326.116 32.776L325.196 32.3839V32.3839L326.116 32.776ZM333.316 23.944L333.851 24.7891L333.857 24.7852L333.863 24.7813L333.316 23.944ZM344.452 20.872H345.452V19.872H344.452V20.872ZM315.748 21.256V20.256H314.748V21.256H315.748ZM326.788 21.256H327.788V20.256H326.788V21.256ZM326.788 72.232V73.232H327.788V72.232H326.788ZM315.748 72.232H314.748V73.232H315.748V72.232ZM344.452 30.856L344.505 29.8574C340.707 29.6575 337.347 30.3219 334.468 31.8989L334.948 32.776L335.428 33.6531C337.924 32.2861 340.901 31.6705 344.399 31.8546L344.452 30.856ZM334.948 32.776L334.475 31.8948C331.688 33.3903 329.503 35.5062 327.937 38.2295L328.804 38.728L329.671 39.2265C331.049 36.8297 332.96 34.9777 335.421 33.6572L334.948 32.776ZM328.804 38.728L327.928 38.2461C326.428 40.9732 325.692 44.0872 325.692 47.56H326.692H327.692C327.692 44.3768 328.364 41.6028 329.68 39.2099L328.804 38.728ZM326.692 47.56L326.816 46.5677L323.744 46.1837L323.62 47.176L323.496 48.1683L326.568 48.5523L326.692 47.56ZM323.62 47.176H324.62C324.62 41.5712 325.439 36.9135 327.036 33.1681L326.116 32.776L325.196 32.3839C323.464 36.4465 322.62 41.3888 322.62 47.176H323.62ZM326.116 32.776L327.036 33.1681C328.632 29.423 330.91 26.6496 333.851 24.7891L333.316 23.944L332.781 23.0989C329.45 25.2064 326.928 28.321 325.196 32.3839L326.116 32.776ZM333.316 23.944L333.863 24.7813C336.814 22.8542 340.329 21.872 344.452 21.872V20.872V19.872C339.999 19.872 336.09 20.9378 332.769 23.1067L333.316 23.944ZM344.452 20.872H343.452V30.856H344.452H345.452V20.872H344.452ZM315.748 21.256V22.256H326.788V21.256V20.256H315.748V21.256ZM326.788 21.256H325.788V72.232H326.788H327.788V21.256H326.788ZM326.788 72.232V71.232H315.748V72.232V73.232H326.788V72.232ZM315.748 72.232H316.748V21.256H315.748H314.748V72.232H315.748ZM378.044 79.432L378.97 79.8112L378.973 79.8029L378.044 79.432ZM371.421 88.264L370.845 87.4465L370.838 87.4508L370.832 87.4553L371.421 88.264ZM355.1 90.28L354.746 91.2151L354.756 91.2189L355.1 90.28ZM349.629 87.112L348.762 86.6126L348.329 87.3631L349.011 87.8983L349.629 87.112ZM354.332 78.952L354.918 78.1413L354.02 77.4925L353.466 78.4526L354.332 78.952ZM365.469 80.008L364.887 79.1943V79.1943L365.469 80.008ZM368.732 75.592L367.813 75.1981L367.81 75.2053L368.732 75.592ZM370.461 71.56L371.38 71.9539L371.547 71.564L371.383 71.1729L370.461 71.56ZM349.34 21.256V20.256H347.836L348.418 21.6431L349.34 21.256ZM360.764 21.256L361.697 20.8944L361.449 20.256H360.764V21.256ZM376.029 60.616L375.096 60.9776L376.062 63.4683L376.969 60.9555L376.029 60.616ZM390.237 21.256V20.256H389.534L389.296 20.9165L390.237 21.256ZM401.276 21.256L402.205 21.6269L402.753 20.256H401.276V21.256ZM378.044 79.432L377.119 79.0528C375.575 82.8202 373.473 85.5947 370.845 87.4465L371.421 88.264L371.996 89.0815C375 86.9653 377.314 83.8518 378.97 79.8112L378.044 79.432ZM371.421 88.264L370.832 87.4553C368.205 89.3661 365.088 90.336 361.436 90.336V91.336V92.336C365.465 92.336 369.004 91.2578 372.009 89.0727L371.421 88.264ZM361.436 91.336V90.336C359.235 90.336 357.241 89.9999 355.445 89.3411L355.1 90.28L354.756 91.2189C356.8 91.9681 359.03 92.336 361.436 92.336V91.336ZM355.1 90.28L355.455 89.345C353.707 88.6818 351.97 87.6801 350.246 86.3257L349.629 87.112L349.011 87.8983C350.871 89.3598 352.782 90.4702 354.746 91.215L355.1 90.28ZM349.629 87.112L350.495 87.6114L355.199 79.4514L354.332 78.952L353.466 78.4526L348.762 86.6126L349.629 87.112ZM354.332 78.952L353.747 79.7627C356.163 81.5078 358.573 82.448 360.956 82.448V81.448V80.448C359.116 80.448 357.11 79.7242 354.918 78.1413L354.332 78.952ZM360.956 81.448V82.448C362.827 82.448 364.535 81.9038 366.05 80.8217L365.469 80.008L364.887 79.1943C363.714 80.0321 362.414 80.448 360.956 80.448V81.448ZM365.469 80.008L366.05 80.8217C367.584 79.7257 368.772 78.0832 369.655 75.9787L368.732 75.592L367.81 75.2053C367.029 77.0688 366.041 78.3703 364.887 79.1943L365.469 80.008ZM368.732 75.592L369.652 75.9859L371.38 71.9539L370.461 71.56L369.541 71.1661L367.813 75.1981L368.732 75.592ZM370.461 71.56L371.383 71.1729L350.263 20.8689L349.34 21.256L348.418 21.6431L369.538 71.9471L370.461 71.56ZM349.34 21.256V22.256H360.764V21.256V20.256H349.34V21.256ZM360.764 21.256L359.832 21.6176L375.096 60.9776L376.029 60.616L376.961 60.2544L361.697 20.8944L360.764 21.256ZM376.029 60.616L376.969 60.9555L391.177 21.5955L390.237 21.256L389.296 20.9165L375.088 60.2765L376.029 60.616ZM390.237 21.256V22.256H401.276V21.256V20.256H390.237V21.256ZM401.276 21.256L400.348 20.8851L377.116 79.0611L378.044 79.432L378.973 79.8029L402.205 21.6269L401.276 21.256Z" fill="white" mask="url(#path-3-outside-2_0_1)"/>
<path d="M135.237 21.732H138.237V71.6709C137.058 71.6063 136.399 71.5953 135.237 71.2587V21.732Z" fill="white"/>
<path d="M143.237 21.732V71.732H146.237C153.095 71.3824 156.482 70.2742 161.237 65.732C165.894 60.4867 167.36 57.2427 167.237 50.732V44.732V21.732H143.237Z" fill="white"/>
<path d="M127.237 21.732H130.237V69.3648C128.972 68.6838 128.312 68.3806 127.237 67.4848V21.732Z" fill="white"/>
<path d="M119.237 21.732H122.237V61.732C121.292 60.2761 120.24 58.4225 119.737 56.232C119.353 54.7508 119.237 52.732 119.237 52.232V21.732Z" fill="white"/>
<path d="M119.237 52.232V21.732H122.237V61.732C121.292 60.2761 120.24 58.4225 119.737 56.232C119.353 54.7508 119.237 52.732 119.237 52.232ZM119.237 21.732C119.237 21.732 119.237 51.732 119.237 52.232M143.237 21.732V71.732H146.237C153.095 71.3824 156.482 70.2742 161.237 65.732C165.894 60.4867 167.36 57.2427 167.237 50.732V44.732V21.732H143.237ZM135.237 21.732H138.237V71.6709C137.058 71.6063 136.399 71.5953 135.237 71.2587V21.732ZM127.237 21.732H130.237V69.3648C128.972 68.6838 128.312 68.3806 127.237 67.4848V21.732Z" stroke="white"/>
</svg>
