<svg width="401" height="91" viewBox="0 0 401 91" fill="none" xmlns="http://www.w3.org/2000/svg">
<path d="M0 4.032H45.12L45.024 13.728H11.328V33.696H41.856V43.296H11.328V71.232H0V4.032ZM78.3547 19.872C83.6027 19.872 88.2107 20.96 92.1787 23.136C96.2108 25.312 99.3468 28.352 101.587 32.256C103.827 36.096 104.947 40.576 104.947 45.696C104.947 50.816 103.827 55.328 101.587 59.232C99.3468 63.136 96.2108 66.176 92.1787 68.352C88.2107 70.528 83.6027 71.616 78.3547 71.616C73.1067 71.616 68.4667 70.528 64.4347 68.352C60.4027 66.176 57.2667 63.136 55.0267 59.232C52.7867 55.328 51.6667 50.816 51.6667 45.696C51.6667 40.576 52.7867 36.096 55.0267 32.256C57.2667 28.352 60.4027 25.312 64.4347 23.136C68.4667 20.96 73.1067 19.872 78.3547 19.872ZM78.3547 28.8C75.2827 28.8 72.5627 29.536 70.1947 31.008C67.8267 32.416 65.9707 34.4 64.6267 36.96C63.3467 39.52 62.7067 42.464 62.7067 45.792C62.7067 49.184 63.3467 52.16 64.6267 54.72C65.9707 57.28 67.8267 59.296 70.1947 60.768C72.5627 62.176 75.2827 62.88 78.3547 62.88C81.4268 62.88 84.1147 62.176 86.4187 60.768C88.7867 59.296 90.6107 57.28 91.8907 54.72C93.2347 52.16 93.9067 49.184 93.9067 45.792C93.9067 42.464 93.2347 39.52 91.8907 36.96C90.6107 34.4 88.7867 32.416 86.4187 31.008C84.1147 29.536 81.4268 28.8 78.3547 28.8Z" fill="black"/>
<path d="M219.638 42.432C219.638 38.464 218.55 35.36 216.374 33.12C214.198 30.816 211.19 29.664 207.35 29.664C202.806 29.728 199.222 31.328 196.598 34.464C194.038 37.6 192.758 41.504 192.758 46.176H189.686C189.686 39.84 190.582 34.752 192.374 30.912C194.166 27.072 196.694 24.288 199.958 22.56C203.286 20.768 207.19 19.872 211.67 19.872C215.638 19.872 219.03 20.672 221.846 22.272C224.726 23.872 226.902 26.144 228.374 29.088C229.91 31.968 230.678 35.456 230.678 39.552V71.232H219.638V42.432ZM181.814 20.256H192.854V71.232H181.814V20.256ZM266.878 19.776C271.614 19.776 275.614 20.832 278.878 22.944C282.206 24.992 284.734 27.968 286.462 31.872C288.254 35.712 289.118 40.32 289.054 45.696C289.118 51.072 288.286 55.712 286.558 59.616C284.83 63.52 282.302 66.528 278.974 68.64C275.71 70.688 271.742 71.712 267.07 71.712C262.206 71.712 257.918 70.624 254.206 68.448C250.558 66.208 247.71 63.136 245.662 59.232C243.614 55.264 242.59 50.72 242.59 45.6C242.59 40.48 243.614 36 245.662 32.16C247.71 28.256 250.558 25.216 254.206 23.04C257.854 20.864 262.078 19.776 266.878 19.776ZM269.374 28.704C266.302 28.704 263.582 29.44 261.214 30.912C258.846 32.384 256.99 34.432 255.646 37.056C254.366 39.616 253.694 42.56 253.63 45.888C253.694 49.216 254.366 52.16 255.646 54.72C256.99 57.28 258.846 59.296 261.214 60.768C263.582 62.24 266.302 62.976 269.374 62.976C272.446 62.976 275.166 62.24 277.534 60.768C279.902 59.296 281.726 57.28 283.006 54.72C284.35 52.16 285.022 49.216 285.022 45.888C285.022 42.496 284.35 39.52 283.006 36.96C281.726 34.4 279.902 32.384 277.534 30.912C275.166 29.44 272.446 28.704 269.374 28.704ZM285.022 -1.90735e-06H296.062V71.232H285.022V-1.90735e-06ZM343.452 29.856C339.804 29.664 336.636 30.304 333.948 31.776C331.324 33.184 329.276 35.168 327.804 37.728C326.396 40.288 325.692 43.232 325.692 46.56L322.62 46.176C322.62 40.48 323.452 35.68 325.116 31.776C326.78 27.872 329.18 24.928 332.316 22.944C335.452 20.896 339.164 19.872 343.452 19.872V29.856ZM314.748 20.256H325.788V71.232H314.748V20.256ZM377.044 78.432C375.444 82.336 373.236 85.28 370.42 87.264C367.604 89.312 364.276 90.336 360.436 90.336C358.132 90.336 356.02 89.984 354.1 89.28C352.244 88.576 350.42 87.52 348.628 86.112L353.332 77.952C355.636 79.616 357.844 80.448 359.956 80.448C361.62 80.448 363.124 79.968 364.468 79.008C365.812 78.048 366.9 76.576 367.732 74.592L369.46 70.56L348.34 20.256H359.764L375.028 59.616L389.236 20.256H400.276L377.044 78.432Z" fill="black"/>
<path d="M134.237 20.732H137.237V70.6709C136.058 70.6063 135.399 70.5953 134.237 70.2587V20.732Z" fill="black"/>
<path d="M142.237 20.732V70.732H145.237C152.095 70.3824 155.482 69.2742 160.237 64.732C164.894 59.4867 166.36 56.2427 166.237 49.732V43.732V20.732H142.237Z" fill="black"/>
<path d="M126.237 20.732H129.237V68.3648C127.972 67.6838 127.312 67.3806 126.237 66.4848V20.732Z" fill="black"/>
<path d="M118.237 20.732H121.237V60.732C120.292 59.2761 119.24 57.4225 118.737 55.232C118.353 53.7508 118.237 51.732 118.237 51.232V20.732Z" fill="black"/>
<path d="M118.237 51.232V20.732H121.237V60.732C120.292 59.2761 119.24 57.4225 118.737 55.232C118.353 53.7508 118.237 51.732 118.237 51.232ZM118.237 20.732C118.237 20.732 118.237 50.732 118.237 51.232M142.237 20.732V70.732H145.237C152.095 70.3824 155.482 69.2742 160.237 64.732C164.894 59.4867 166.36 56.2427 166.237 49.732V43.732V20.732H142.237ZM134.237 20.732H137.237V70.6709C136.058 70.6063 135.399 70.5953 134.237 70.2587V20.732ZM126.237 20.732H129.237V68.3648C127.972 67.6838 127.312 67.3806 126.237 66.4848V20.732Z" stroke="black"/>
</svg>
